<svg width="99" height="16" viewBox="0 0 99 16" fill="none" xmlns="http://www.w3.org/2000/svg">
<path d="M6.56 15.22C4.45333 15.22 2.87333 14.7 1.82 13.66C0.766667 12.62 0.24 11.0667 0.24 9V0.899999H3.92V9.02C3.92 10.0467 4.13333 10.8267 4.56 11.36C4.98667 11.88 5.65333 12.14 6.56 12.14C7.46667 12.14 8.13333 11.88 8.56 11.36C8.98667 10.8267 9.2 10.0467 9.2 9.02V0.899999H12.84V9C12.84 11.0667 12.32 12.62 11.28 13.66C10.24 14.7 8.66667 15.22 6.56 15.22ZM15.3195 15V0.899999H19.0195V15H15.3195ZM28.0694 15V7.46H26.1694V4.84H29.0694L28.0694 5.76V4.38C28.0694 2.98 28.436 1.93333 29.1694 1.24C29.9027 0.546666 31.0094 0.2 32.4894 0.2C32.8227 0.2 33.176 0.22 33.5494 0.259999C33.9227 0.299999 34.256 0.379999 34.5494 0.5V3.22C34.3627 3.15333 34.1494 3.10667 33.9094 3.08C33.6694 3.04 33.436 3.02 33.2094 3.02C32.9427 3.02 32.6827 3.06667 32.4294 3.16C32.1894 3.24 31.9894 3.38667 31.8294 3.6C31.6827 3.81333 31.6094 4.10667 31.6094 4.48V5.38L31.1094 4.84H34.0694V7.46H31.6294V15H28.0694ZM40.1605 15.22C39.0271 15.22 38.0471 15.0067 37.2205 14.58C36.3938 14.1533 35.7538 13.5467 35.3005 12.76C34.8471 11.96 34.6205 11.0133 34.6205 9.92C34.6205 8.81333 34.8471 7.86667 35.3005 7.08C35.7538 6.29333 36.3938 5.68667 37.2205 5.26C38.0471 4.83333 39.0271 4.62 40.1605 4.62C41.2805 4.62 42.2538 4.83333 43.0805 5.26C43.9071 5.68667 44.5471 6.3 45.0005 7.1C45.4538 7.88667 45.6805 8.82667 45.6805 9.92C45.6805 11 45.4538 11.94 45.0005 12.74C44.5471 13.54 43.9071 14.1533 43.0805 14.58C42.2538 15.0067 41.2805 15.22 40.1605 15.22ZM40.1605 12.58C40.7471 12.58 41.2138 12.3733 41.5605 11.96C41.9071 11.5333 42.0805 10.8533 42.0805 9.92C42.0805 8.98667 41.9071 8.31333 41.5605 7.9C41.2138 7.47333 40.7471 7.26 40.1605 7.26C39.5605 7.26 39.0871 7.47333 38.7405 7.9C38.3938 8.31333 38.2205 8.98667 38.2205 9.92C38.2205 10.8533 38.3938 11.5333 38.7405 11.96C39.0871 12.3733 39.5605 12.58 40.1605 12.58ZM47.4242 15V7.62C47.4242 7.15333 47.4109 6.68667 47.3842 6.22C47.3576 5.75333 47.3176 5.29333 47.2642 4.84H50.7042L51.0842 7.96H50.5442C50.6776 7.2 50.8909 6.57333 51.1842 6.08C51.4776 5.58667 51.8442 5.22 52.2842 4.98C52.7242 4.74 53.2442 4.62 53.8442 4.62C54.1242 4.62 54.3309 4.63333 54.4642 4.66C54.6109 4.67333 54.7642 4.71333 54.9242 4.78V7.9C54.5909 7.75333 54.3242 7.66 54.1242 7.62C53.9242 7.58 53.6642 7.56 53.3442 7.56C52.7976 7.56 52.3509 7.66 52.0042 7.86C51.6576 8.04667 51.4042 8.34 51.2442 8.74C51.0976 9.14 51.0242 9.65333 51.0242 10.28V15H47.4242Z" fill="black"/>
<path d="M67.2797 15.22C66.1464 15.22 65.0664 15.0867 64.0397 14.82C63.0264 14.54 62.173 14.1667 61.4797 13.7L62.5197 10.84C62.9597 11.12 63.4397 11.36 63.9597 11.56C64.4797 11.76 65.0197 11.92 65.5797 12.04C66.153 12.1467 66.733 12.2 67.3197 12.2C68.1997 12.2 68.8064 12.0867 69.1397 11.86C69.4864 11.6333 69.6597 11.34 69.6597 10.98C69.6597 10.66 69.5464 10.4133 69.3197 10.24C69.093 10.0533 68.6664 9.89333 68.0397 9.76L65.5997 9.26C64.3064 8.99333 63.3397 8.53333 62.6997 7.88C62.0597 7.21333 61.7397 6.34667 61.7397 5.28C61.7397 4.34667 61.9864 3.54 62.4797 2.86C62.9864 2.16667 63.693 1.63333 64.5997 1.26C65.5064 0.873333 66.5664 0.68 67.7797 0.68C68.7797 0.68 69.7197 0.819999 70.5997 1.1C71.4797 1.36667 72.1997 1.74 72.7597 2.22L71.7197 4.9C71.1864 4.51333 70.5864 4.22 69.9197 4.02C69.253 3.80667 68.513 3.7 67.6997 3.7C66.9264 3.7 66.3397 3.82 65.9397 4.06C65.553 4.28667 65.3597 4.61333 65.3597 5.04C65.3597 5.33333 65.473 5.58667 65.6997 5.8C65.9397 6 66.373 6.16667 66.9997 6.3L69.3997 6.78C70.693 7.03333 71.6597 7.48667 72.2997 8.14C72.953 8.79333 73.2797 9.64667 73.2797 10.7C73.2797 11.6067 73.0264 12.4 72.5197 13.08C72.0264 13.76 71.333 14.2867 70.4397 14.66C69.5464 15.0333 68.493 15.22 67.2797 15.22ZM75.1977 15V4.84H78.7577V15H75.1977ZM75.1177 3.4V0.2H78.8577V3.4H75.1177ZM86.1594 15.22C84.7194 15.22 83.6327 14.88 82.8994 14.2C82.1794 13.5067 81.8194 12.46 81.8194 11.06V7.46H79.9194V4.84H81.8194V2.44L85.3794 1.6V4.84H87.8594V7.46H85.3794V10.92C85.3794 11.5067 85.5127 11.9 85.7794 12.1C86.046 12.2867 86.366 12.38 86.7394 12.38C86.966 12.38 87.1594 12.3667 87.3194 12.34C87.4927 12.3 87.6727 12.2467 87.8594 12.18V14.92C87.566 15.04 87.2727 15.12 86.9794 15.16C86.6994 15.2 86.426 15.22 86.1594 15.22ZM94.503 15.22C92.663 15.22 91.2296 14.7467 90.203 13.8C89.1896 12.8533 88.683 11.5533 88.683 9.9C88.683 8.87333 88.8963 7.96 89.323 7.16C89.7496 6.36 90.3496 5.74 91.123 5.3C91.8963 4.84667 92.803 4.62 93.843 4.62C94.8696 4.62 95.723 4.84667 96.403 5.3C97.0963 5.74 97.6163 6.35333 97.963 7.14C98.3096 7.91333 98.483 8.81333 98.483 9.84V10.6H91.663V8.92H95.863L95.523 9.2C95.523 8.44 95.3763 7.88 95.083 7.52C94.803 7.14667 94.403 6.96 93.883 6.96C93.283 6.96 92.823 7.18667 92.503 7.64C92.1963 8.08 92.043 8.74667 92.043 9.64V10C92.043 10.8933 92.263 11.5467 92.703 11.96C93.143 12.3733 93.7763 12.58 94.603 12.58C95.1363 12.58 95.6363 12.52 96.103 12.4C96.583 12.28 97.0363 12.0867 97.463 11.82L98.383 14.14C97.8763 14.4867 97.2896 14.7533 96.623 14.94C95.9563 15.1267 95.2496 15.22 94.503 15.22Z" fill="#A52424"/>
</svg>
